<?xml version="1.0" standalone="no"?>
<!DOCTYPE svg PUBLIC "-//W3C//DTD SVG 20010904//EN"
 "http://www.w3.org/TR/2001/REC-SVG-20010904/DTD/svg10.dtd">
<svg version="1.0" xmlns="http://www.w3.org/2000/svg"
 width="4405.000000pt" height="4405.000000pt" viewBox="0 0 4405.000000 4405.000000"
 preserveAspectRatio="xMidYMid meet">
<metadata>
Created by potrace 1.11, written by Peter Selinger 2001-2013
</metadata>
<g transform="translate(0.000000,4405.000000) scale(0.100000,-0.100000)"
fill="#000000" stroke="none">
<path d="M13897 43314 c-1 -1 -74 -5 -162 -8 -88 -4 -176 -9 -195 -10 -19 -2
-69 -7 -110 -10 -97 -9 -339 -39 -410 -52 -14 -2 -45 -7 -70 -10 -24 -3 -47
-7 -50 -9 -4 -2 -29 -7 -56 -11 -27 -3 -52 -8 -55 -10 -3 -2 -21 -6 -40 -9
-19 -3 -41 -8 -49 -10 -8 -2 -29 -7 -46 -9 -65 -11 -356 -89 -511 -136 -196
-60 -450 -154 -646 -239 -26 -11 -49 -21 -52 -21 -14 -3 -416 -207 -490 -249
-48 -28 -89 -51 -90 -51 -4 0 -184 -109 -213 -129 -15 -10 -81 -54 -147 -97
-66 -43 -126 -84 -135 -91 -8 -6 -73 -55 -145 -109 -465 -348 -908 -792 -1248
-1249 -53 -71 -100 -134 -105 -140 -57 -73 -328 -504 -355 -565 -4 -8 -17 -31
-28 -50 -51 -84 -207 -404 -282 -580 -174 -410 -351 -1017 -402 -1380 -3 -25
-8 -52 -10 -60 -2 -8 -7 -35 -10 -60 -3 -25 -8 -56 -10 -70 -2 -14 -7 -50 -11
-80 -3 -30 -7 -66 -9 -80 -2 -14 -7 -59 -10 -100 -4 -41 -8 -88 -10 -105 -23
-183 -24 -849 -1 -1030 2 -16 7 -61 11 -100 6 -73 12 -123 21 -190 2 -22 7
-58 10 -80 3 -22 9 -65 14 -95 5 -30 12 -72 16 -94 3 -21 7 -48 10 -60 97
-510 237 -965 435 -1413 33 -76 69 -154 79 -173 10 -19 37 -73 60 -120 237
-474 573 -965 933 -1365 83 -93 383 -395 472 -475 436 -397 1054 -804 1580
-1042 44 -20 111 -50 148 -67 38 -17 71 -31 73 -31 3 0 24 -8 47 -19 160 -71
701 -248 841 -275 12 -2 44 -10 71 -16 28 -6 61 -14 75 -16 14 -3 39 -9 55
-14 17 -4 48 -12 70 -16 22 -4 45 -8 50 -9 39 -9 321 -54 380 -61 33 -3 67 -8
75 -9 18 -3 129 -16 180 -20 301 -27 933 -27 1145 0 17 2 60 6 97 10 37 3 77
8 90 10 13 2 48 6 79 10 31 3 65 7 75 9 25 5 116 19 129 20 11 2 89 16 120 23
11 2 34 6 50 8 139 20 522 121 775 205 726 240 1421 622 2005 1101 208 172
591 540 736 709 35 41 66 77 69 80 14 12 183 223 236 294 142 189 414 600 414
627 0 5 5 9 10 9 6 0 10 4 10 10 0 5 33 69 73 142 41 73 102 191 136 261 74
152 211 472 211 492 0 8 5 17 10 20 6 3 10 13 10 22 0 8 6 29 14 46 13 30 93
262 102 297 2 8 19 69 39 135 32 107 49 171 60 228 2 10 7 27 10 37 11 36 84
399 91 450 4 38 14 104 20 135 2 11 7 44 10 74 3 30 7 62 9 70 1 9 6 52 10 96
4 44 9 91 11 105 23 142 23 956 0 1075 -2 11 -7 56 -10 101 -4 44 -8 92 -11
105 -2 13 -9 67 -15 119 -7 52 -14 103 -16 113 -2 10 -13 73 -24 140 -125 726
-406 1475 -800 2132 -337 561 -787 1096 -1285 1525 -210 181 -493 397 -632
481 -21 13 -40 25 -43 28 -3 4 -14 11 -25 18 -106 63 -162 99 -175 109 -8 6
-40 25 -70 42 -30 16 -84 46 -120 67 -69 40 -365 190 -440 223 -25 11 -94 41
-155 66 -60 26 -119 51 -130 55 -57 26 -177 69 -320 116 -318 106 -535 162
-900 230 -45 9 -215 36 -255 40 -19 3 -51 7 -70 10 -52 8 -106 13 -194 20 -44
4 -88 8 -97 10 -35 7 -605 24 -612 19z"/>
<path d="M29417 43314 c-1 -1 -72 -5 -157 -9 -85 -4 -171 -8 -190 -10 -188
-15 -225 -20 -405 -45 -128 -17 -149 -21 -303 -51 -122 -23 -286 -60 -457
-103 -117 -30 -428 -131 -577 -187 -259 -99 -610 -261 -808 -372 -25 -14 -67
-38 -94 -52 -27 -15 -103 -61 -170 -102 -558 -350 -977 -701 -1426 -1199 -103
-113 -316 -380 -399 -499 -73 -104 -221 -326 -221 -330 0 -2 -27 -47 -60 -99
-33 -53 -60 -97 -60 -99 0 -2 -23 -44 -51 -93 -48 -83 -259 -505 -259 -518 0
-3 -11 -30 -25 -60 -14 -30 -25 -58 -25 -61 0 -4 -7 -21 -15 -38 -86 -188
-275 -790 -310 -988 -3 -16 -12 -57 -20 -91 -8 -35 -16 -76 -19 -93 -3 -16 -8
-39 -10 -50 -2 -11 -7 -40 -11 -65 -4 -25 -9 -52 -10 -60 -3 -18 -15 -95 -20
-130 -12 -79 -16 -109 -19 -145 -3 -22 -7 -67 -11 -100 -24 -226 -30 -365 -29
-665 0 -157 3 -330 8 -385 4 -55 9 -129 12 -165 2 -36 6 -81 9 -100 2 -19 7
-60 10 -90 3 -30 8 -66 10 -80 2 -14 7 -45 10 -70 11 -82 35 -223 61 -350 147
-717 382 -1325 773 -1995 117 -199 362 -546 534 -755 217 -262 538 -592 737
-756 19 -16 44 -37 55 -47 93 -86 383 -305 561 -425 119 -79 360 -232 368
-232 2 0 48 -25 102 -56 123 -70 439 -224 599 -292 197 -83 417 -161 675 -240
211 -64 649 -160 850 -186 19 -3 58 -7 85 -11 28 -4 60 -8 72 -10 12 -2 57 -7
100 -10 43 -4 86 -9 96 -11 100 -18 763 -26 977 -11 63 4 122 8 130 9 8 0 53
5 100 10 47 5 99 11 115 13 75 8 144 17 195 25 30 5 73 12 95 16 33 5 320 61
405 80 14 3 84 21 155 39 895 234 1723 663 2455 1273 256 214 599 560 795 803
33 41 63 76 66 79 20 18 213 280 301 410 178 264 299 472 438 755 95 193 202
440 249 575 13 36 27 74 31 85 26 63 114 339 125 394 2 9 8 28 14 44 6 15 13
38 15 50 3 12 20 87 39 167 20 80 41 172 47 205 6 33 13 70 16 83 10 54 33
194 48 292 5 34 21 169 31 260 32 283 37 900 10 1120 -2 19 -6 71 -10 114 -3
43 -7 88 -10 100 -2 12 -7 46 -10 77 -3 31 -7 65 -9 75 -2 11 -7 42 -10 69 -4
28 -8 61 -11 75 -3 14 -7 41 -10 60 -13 83 -70 357 -89 430 -27 104 -39 147
-41 160 -17 76 -147 480 -180 555 -7 17 -18 46 -25 65 -87 238 -281 637 -460
945 -97 166 -394 598 -454 661 -6 6 -22 26 -36 44 -27 36 -117 144 -165 199
-16 19 -52 59 -79 90 -93 105 -431 437 -541 532 -295 255 -675 531 -925 671
-25 14 -114 64 -198 112 -85 47 -156 86 -158 86 -2 0 -59 27 -126 59 -188 90
-249 117 -423 186 -213 84 -507 181 -665 221 -8 2 -58 15 -110 28 -52 14 -106
27 -120 30 -14 2 -68 14 -120 25 -105 22 -118 25 -240 45 -130 23 -193 32
-280 41 -30 3 -66 8 -80 10 -14 3 -59 7 -100 11 -41 3 -91 7 -110 9 -90 9
-616 25 -623 19z"/>
<path d="M6127 28754 c-1 -1 -67 -5 -147 -9 -184 -9 -282 -17 -385 -30 -16 -3
-68 -9 -115 -15 -130 -17 -151 -20 -205 -30 -27 -5 -66 -11 -85 -14 -19 -3
-80 -15 -135 -26 -55 -12 -111 -24 -125 -26 -14 -3 -52 -12 -85 -21 -33 -8
-68 -17 -77 -18 -28 -6 -210 -55 -238 -64 -29 -10 -173 -55 -180 -56 -52 -9
-520 -192 -665 -260 -112 -52 -311 -152 -367 -183 -21 -12 -68 -38 -105 -58
-113 -62 -350 -211 -488 -307 -116 -81 -282 -203 -295 -218 -3 -3 -14 -12 -26
-20 -24 -16 -78 -61 -223 -184 -114 -96 -492 -469 -583 -575 -31 -36 -66 -76
-78 -90 -12 -14 -39 -45 -59 -70 -20 -25 -38 -47 -41 -50 -10 -9 -146 -185
-180 -233 -19 -27 -45 -60 -56 -75 -61 -77 -275 -412 -356 -557 -106 -187
-190 -353 -264 -517 -47 -105 -182 -438 -190 -467 -2 -9 -21 -68 -43 -131 -43
-127 -108 -345 -116 -393 -3 -17 -8 -33 -10 -36 -3 -6 -58 -237 -70 -296 -12
-61 -36 -191 -41 -225 -3 -19 -9 -60 -14 -90 -9 -52 -14 -94 -25 -182 -3 -21
-8 -57 -11 -80 -5 -42 -8 -69 -19 -226 -13 -176 -15 -234 -15 -457 -1 -227 4
-387 15 -495 3 -30 8 -83 10 -117 3 -35 7 -75 9 -90 3 -16 8 -57 11 -93 12
-118 67 -438 100 -580 34 -149 74 -309 85 -345 6 -16 33 -104 61 -195 42 -135
104 -312 136 -390 3 -8 7 -17 8 -20 5 -15 23 -59 78 -185 82 -194 235 -500
314 -630 7 -11 15 -27 19 -35 35 -70 256 -408 367 -560 64 -87 213 -278 227
-290 3 -3 29 -34 59 -70 154 -189 511 -548 681 -686 19 -16 37 -31 40 -34 6
-6 56 -49 125 -105 390 -323 971 -674 1445 -874 69 -29 134 -56 145 -61 92
-41 377 -142 530 -188 201 -61 547 -145 689 -166 21 -4 48 -8 60 -11 31 -7 75
-14 121 -20 22 -3 51 -7 64 -10 13 -2 49 -7 80 -10 31 -4 67 -8 81 -11 14 -2
54 -6 90 -9 36 -4 81 -8 100 -11 204 -24 940 -24 1090 0 14 2 59 7 100 10 41
4 86 8 100 10 14 3 49 7 79 10 30 4 98 13 150 22 53 8 110 17 126 20 25 4 110
20 150 29 16 3 89 17 105 20 8 2 42 10 75 18 33 9 71 18 85 21 127 26 418 114
625 189 629 228 1200 543 1745 964 28 21 264 218 281 233 9 8 61 56 115 106
243 225 405 398 653 699 96 117 355 486 438 625 202 337 366 662 472 935 18
44 36 89 41 100 19 41 127 349 136 390 2 6 12 42 24 80 24 82 69 245 80 295 5
19 11 44 13 55 28 110 82 396 102 538 3 27 8 56 10 65 2 16 9 68 20 177 2 22
7 60 9 85 28 253 28 986 1 1154 -2 11 -6 59 -10 105 -3 46 -7 87 -9 90 -2 3
-7 35 -11 71 -4 36 -9 74 -11 85 -2 10 -6 37 -9 60 -3 22 -14 85 -25 140 -10
55 -21 114 -24 130 -3 17 -8 39 -10 50 -3 11 -12 54 -21 95 -9 41 -18 83 -20
92 -24 112 -155 550 -190 633 -7 17 -20 53 -30 80 -10 28 -23 64 -30 80 -164
402 -293 663 -490 990 -81 135 -234 365 -266 401 -11 11 -19 23 -19 27 0 4
-24 38 -52 75 -29 37 -58 74 -65 82 -295 380 -633 724 -1034 1055 -81 66 -331
249 -442 324 -124 82 -343 219 -377 234 -8 4 -31 17 -50 29 -67 40 -416 215
-535 268 -230 101 -486 195 -740 272 -125 38 -418 113 -480 123 -16 3 -61 12
-100 20 -74 16 -92 19 -195 35 -36 6 -76 13 -90 15 -14 2 -45 7 -70 10 -25 3
-62 7 -82 10 -241 32 -477 47 -771 49 -109 1 -199 1 -200 0z"/>
<path d="M37557 28754 c-1 -1 -69 -5 -152 -9 -82 -4 -157 -8 -165 -10 -8 -1
-51 -6 -95 -9 -44 -4 -114 -11 -155 -17 -41 -5 -88 -12 -105 -14 -16 -2 -52
-7 -80 -11 -27 -3 -59 -8 -70 -10 -11 -2 -33 -6 -50 -9 -16 -3 -41 -7 -55 -10
-14 -3 -40 -7 -58 -10 -18 -3 -65 -12 -105 -21 -68 -15 -81 -17 -132 -28 -200
-42 -726 -203 -875 -269 -19 -9 -87 -37 -150 -63 -228 -93 -424 -191 -715
-354 -84 -47 -240 -145 -243 -152 -2 -4 -8 -8 -13 -8 -9 0 -75 -44 -239 -159
-200 -141 -431 -329 -634 -516 -111 -103 -335 -329 -397 -401 -14 -16 -57 -66
-95 -109 -327 -374 -637 -841 -871 -1311 -77 -153 -233 -513 -233 -536 0 -8
-4 -18 -9 -23 -4 -6 -16 -32 -26 -60 -9 -27 -21 -59 -26 -70 -10 -23 -98 -297
-104 -323 -2 -9 -20 -73 -39 -142 -19 -69 -38 -140 -41 -159 -3 -19 -8 -37
-10 -41 -2 -3 -6 -17 -9 -31 -2 -13 -16 -80 -30 -149 -14 -69 -27 -138 -30
-155 -3 -16 -8 -41 -10 -55 -13 -67 -38 -244 -50 -365 -12 -114 -15 -144 -21
-225 -21 -272 -21 -670 0 -940 13 -172 40 -398 60 -510 2 -14 7 -45 10 -70 4
-25 11 -67 17 -95 5 -27 12 -63 14 -80 3 -16 9 -46 14 -65 5 -19 16 -70 25
-112 9 -43 38 -159 65 -258 225 -819 611 -1583 1132 -2238 67 -86 127 -160
133 -166 5 -6 39 -45 75 -86 138 -160 345 -368 565 -570 65 -59 375 -307 477
-381 152 -111 362 -248 507 -332 269 -155 487 -264 746 -373 44 -19 88 -38 97
-44 10 -5 23 -10 29 -10 6 0 25 -6 42 -14 126 -57 506 -178 752 -240 141 -35
449 -96 564 -112 19 -2 46 -6 60 -9 66 -11 153 -21 344 -40 196 -20 737 -26
951 -12 199 14 388 34 531 57 39 6 88 13 110 16 22 3 51 7 65 10 14 3 36 8 50
10 14 3 59 11 100 19 41 9 84 17 95 19 145 29 512 131 689 193 291 101 480
180 751 314 260 128 440 231 665 377 83 55 360 250 370 262 3 3 37 30 75 60
181 139 371 308 569 506 454 452 863 1016 1145 1574 32 63 63 124 69 135 15
25 76 161 109 240 13 33 32 78 42 100 23 51 121 316 154 415 37 115 59 183 63
200 1 8 17 65 34 125 18 61 45 171 62 245 39 175 37 169 44 210 3 19 7 43 10
53 3 10 7 30 9 45 2 15 6 41 9 57 3 17 8 48 11 70 4 22 8 47 10 55 2 8 7 47
11 85 3 39 8 72 9 75 2 3 6 41 10 85 4 44 9 88 10 97 26 136 26 966 0 1168 -2
19 -7 60 -10 90 -3 30 -8 71 -10 90 -3 19 -7 55 -10 80 -7 52 -13 94 -20 130
-2 14 -7 45 -10 70 -5 37 -25 137 -70 360 -2 8 -15 62 -30 120 -15 58 -28 112
-30 120 -5 23 -30 106 -101 325 -168 522 -414 1031 -730 1507 -68 103 -131
193 -139 202 -8 8 -15 19 -15 24 0 6 -3 12 -7 14 -5 2 -41 46 -80 99 -97 129
-212 267 -338 408 -112 125 -429 435 -570 555 -278 238 -611 476 -933 667
-225 133 -579 304 -856 414 -283 112 -679 235 -936 289 -47 10 -395 74 -435
81 -85 13 -173 24 -235 30 -36 3 -82 8 -103 11 -129 15 -378 27 -605 28 -107
1 -194 0 -195 0z"/>
<path d="M13867 16154 c-1 -1 -72 -5 -157 -9 -85 -4 -171 -8 -190 -10 -19 -2
-69 -6 -110 -10 -41 -3 -86 -8 -100 -10 -14 -2 -50 -6 -80 -10 -30 -3 -80 -10
-110 -15 -30 -5 -73 -11 -95 -14 -22 -3 -62 -9 -90 -15 -27 -5 -68 -12 -90
-15 -23 -4 -50 -8 -60 -11 -11 -2 -63 -14 -115 -25 -52 -12 -102 -23 -110 -25
-448 -102 -938 -282 -1380 -507 -300 -152 -471 -252 -709 -414 -123 -85 -402
-291 -411 -305 -3 -4 -32 -29 -65 -56 -209 -168 -467 -417 -685 -659 -61 -68
-229 -270 -265 -319 -17 -22 -33 -42 -36 -45 -19 -16 -236 -327 -314 -450 -58
-91 -94 -149 -117 -190 -14 -25 -35 -63 -48 -85 -189 -330 -356 -704 -482
-1074 -46 -138 -121 -388 -132 -441 -3 -14 -12 -50 -20 -82 -8 -31 -17 -67
-20 -80 -3 -12 -18 -86 -34 -163 -17 -77 -32 -158 -36 -180 -3 -22 -7 -49 -10
-60 -2 -11 -7 -45 -11 -75 -4 -30 -9 -62 -10 -71 -2 -9 -6 -40 -10 -70 -3 -30
-8 -65 -10 -79 -2 -14 -7 -63 -10 -110 -4 -47 -9 -92 -10 -100 -23 -126 -23
-810 0 -1035 2 -22 6 -66 9 -97 11 -105 18 -173 22 -193 2 -11 6 -42 9 -70 3
-27 10 -77 16 -110 5 -33 12 -73 15 -90 9 -56 34 -180 49 -250 8 -38 17 -79
19 -90 23 -123 159 -588 203 -695 3 -8 7 -20 8 -26 2 -5 28 -74 58 -151 327
-831 792 -1540 1422 -2168 99 -99 198 -196 220 -215 159 -139 228 -196 375
-313 15 -12 105 -80 165 -124 149 -110 491 -326 670 -423 191 -104 551 -274
668 -316 20 -7 52 -20 70 -28 17 -8 46 -19 62 -24 17 -6 75 -26 130 -46 250
-91 642 -197 895 -242 14 -2 45 -9 70 -14 25 -5 110 -19 190 -30 80 -12 159
-23 175 -25 17 -3 68 -7 115 -10 47 -4 91 -8 99 -11 30 -10 288 -19 551 -19
244 0 374 5 545 19 131 11 182 16 205 20 14 3 48 7 75 11 71 9 112 15 175 25
30 5 73 12 95 16 113 17 424 87 580 130 546 152 1009 350 1565 671 107 62 472
307 516 348 7 5 24 19 40 30 98 70 358 286 479 400 276 258 550 560 738 815
27 35 52 67 55 70 12 9 223 320 288 425 56 89 145 244 145 252 0 5 6 15 13 23
41 46 262 513 341 720 38 98 48 123 64 163 66 155 245 808 267 970 5 38 12 74
18 95 2 9 7 37 10 62 3 25 8 54 10 65 2 11 7 43 10 70 16 123 18 141 22 165 2
14 6 54 9 90 3 36 8 79 10 95 19 144 26 729 12 930 -14 196 -18 240 -22 270
-3 17 -7 53 -10 80 -9 87 -16 137 -35 260 -23 140 -78 424 -85 434 -2 4 -7 22
-10 39 -20 116 -128 475 -207 692 -130 356 -344 807 -508 1070 -5 8 -37 60
-71 115 -139 225 -352 516 -533 729 -450 529 -985 983 -1576 1338 -298 178
-659 355 -945 463 -55 21 -109 41 -120 46 -142 60 -677 213 -855 246 -14 2
-45 9 -70 14 -25 6 -54 12 -65 14 -120 20 -279 45 -315 50 -25 3 -56 8 -70 10
-24 4 -58 8 -190 21 -172 16 -376 26 -588 28 -90 0 -164 0 -165 0z"/>
<path d="M29397 16153 c-1 0 -69 -4 -152 -7 -82 -4 -166 -8 -185 -11 -19 -2
-71 -7 -115 -10 -44 -4 -91 -9 -105 -10 -14 -2 -47 -6 -75 -10 -27 -3 -61 -8
-75 -10 -14 -2 -45 -7 -70 -10 -44 -6 -121 -18 -190 -31 -19 -3 -44 -8 -55 -9
-163 -25 -606 -140 -840 -220 -70 -24 -319 -116 -350 -130 -16 -7 -58 -25 -93
-39 -403 -169 -859 -426 -1237 -700 -65 -47 -294 -224 -305 -236 -3 -3 -32
-27 -65 -55 -226 -188 -512 -472 -716 -710 -226 -265 -424 -538 -607 -838 -40
-64 -72 -120 -72 -123 0 -3 -8 -18 -18 -32 -31 -45 -242 -452 -242 -467 0 -2
-18 -42 -39 -89 -218 -468 -422 -1196 -486 -1726 -3 -25 -7 -61 -10 -80 -29
-234 -40 -435 -40 -755 1 -233 8 -457 19 -540 2 -16 7 -68 11 -115 4 -47 9
-87 10 -90 2 -3 6 -32 10 -65 11 -108 36 -259 66 -410 11 -55 23 -111 25 -125
42 -212 161 -612 262 -880 126 -336 307 -709 485 -999 38 -64 75 -125 81 -136
22 -39 160 -241 240 -350 67 -92 277 -359 295 -375 4 -3 35 -39 71 -80 65 -76
442 -457 515 -520 145 -126 191 -165 280 -236 246 -196 573 -418 800 -544 33
-18 76 -42 95 -53 146 -84 424 -216 670 -320 38 -16 179 -69 195 -74 10 -3
215 -75 245 -86 21 -8 231 -68 249 -72 9 -2 41 -10 72 -19 31 -9 65 -18 76
-20 11 -2 48 -11 84 -19 35 -9 78 -18 94 -22 17 -3 41 -8 55 -11 51 -12 106
-22 144 -28 21 -4 41 -8 45 -10 3 -2 29 -7 56 -10 28 -3 61 -8 75 -10 41 -8
102 -17 145 -21 22 -3 54 -7 70 -9 17 -2 59 -7 95 -11 36 -3 83 -8 105 -10
245 -27 869 -26 1120 0 22 2 67 7 100 10 33 3 69 8 80 10 11 3 1 -5 -22 -17
-24 -12 -43 -24 -43 -27 0 -4 62 -46 138 -95 75 -50 247 -162 382 -251 135
-89 299 -197 365 -240 66 -43 210 -138 320 -210 110 -72 268 -176 350 -230
293 -192 472 -309 588 -387 65 -43 122 -78 127 -78 4 0 10 -3 12 -7 3 -9 -11
1 366 -247 156 -102 287 -186 292 -186 5 0 10 -3 12 -7 2 -5 50 -39 108 -77
58 -38 144 -95 191 -126 47 -31 89 -59 95 -61 5 -2 122 -79 259 -170 389 -258
666 -439 671 -439 2 0 2 12 0 28 -6 39 -14 100 -21 152 -2 25 -7 65 -10 90 -3
25 -7 56 -10 70 -2 14 -7 50 -10 80 -3 30 -8 66 -10 80 -2 14 -7 50 -10 80 -3
30 -8 66 -10 80 -4 23 -7 48 -20 148 -2 20 -7 55 -9 77 -3 22 -8 58 -10 80 -3
22 -8 56 -10 75 -3 19 -8 55 -10 80 -3 25 -7 61 -10 80 -3 19 -10 73 -16 120
-14 111 -20 159 -25 190 -2 14 -9 69 -15 124 -7 54 -13 107 -15 117 -2 10 -6
42 -9 71 -4 29 -8 62 -10 73 -2 12 -7 51 -10 87 -4 37 -9 76 -11 88 -2 12 -7
48 -11 79 -3 31 -7 63 -9 71 -1 8 -6 44 -10 80 -4 36 -9 73 -11 84 -2 10 -6
44 -9 75 -3 31 -8 67 -11 81 -4 24 -6 43 -19 150 -3 25 -7 56 -10 70 -2 14 -7
54 -11 90 -3 36 -7 67 -9 70 -2 3 -6 39 -10 80 -4 41 -8 77 -10 80 -2 3 -6 39
-10 80 -4 41 -8 77 -10 80 -2 3 -6 32 -9 66 -4 33 -8 71 -10 85 -3 13 -7 51
-11 84 -4 32 -8 66 -10 75 -1 8 -6 40 -9 70 -9 79 -15 120 -21 160 -2 19 -7
58 -10 85 -3 28 -7 61 -10 75 -2 14 -6 45 -9 70 -5 44 -31 242 -42 330 -4 24
-8 56 -10 70 -1 14 -6 57 -9 95 l-7 70 114 115 c614 624 1087 1359 1405 2185
19 50 36 97 38 105 2 8 12 40 24 70 12 30 41 123 66 205 25 83 49 164 54 180
44 138 137 580 156 740 4 28 8 61 11 75 2 14 7 45 9 70 3 25 7 59 9 75 3 17 8
64 12 105 3 41 8 91 10 110 22 222 22 780 0 1000 -2 19 -7 69 -11 110 -10 120
-22 220 -29 255 -2 11 -7 43 -10 70 -10 77 -35 220 -57 325 -11 52 -23 106
-25 120 -3 14 -10 43 -16 65 -5 22 -12 48 -14 57 -13 57 -30 123 -54 213 -35
131 -176 546 -210 620 -5 11 -37 85 -71 165 -92 216 -240 510 -349 690 -86
144 -198 319 -263 410 -83 119 -254 346 -293 390 -12 14 -50 59 -85 100 -35
41 -66 77 -69 80 -3 3 -27 30 -54 60 -445 497 -1022 955 -1625 1289 -107 60
-267 141 -278 142 -5 1 -20 10 -35 20 -14 10 -32 19 -40 19 -8 0 -18 4 -24 9
-17 16 -388 174 -474 201 -14 5 -69 24 -123 44 -88 31 -338 110 -384 121 -10
2 -54 14 -98 26 -130 34 -454 104 -529 114 -27 3 -52 8 -55 9 -5 3 -76 13
-146 21 -11 1 -42 5 -70 9 -76 11 -103 14 -190 21 -44 4 -93 8 -108 10 -86 11
-642 26 -650 18z"/>
</g>
</svg>
